<?xml version="1.0" encoding="UTF-8" standalone="no"?> <!-- Created with Vectornator for iOS (http://vectornator.io/) --><!DOCTYPE svg PUBLIC "-//W3C//DTD SVG 1.1//EN" "http://www.w3.org/Graphics/SVG/1.1/DTD/svg11.dtd">
<svg height="100%" style="fill-rule:nonzero;clip-rule:evenodd;stroke-linecap:round;stroke-linejoin:round;" xmlns:xlink="http://www.w3.org/1999/xlink" xmlns="http://www.w3.org/2000/svg" xml:space="preserve" width="100%" xmlns:vectornator="http://vectornator.io" version="1.1" viewBox="0 0 907.2 311.85">
<metadata>
<vectornator:setting key="DimensionsVisible" value="1"/>
<vectornator:setting key="PencilOnly" value="1"/>
<vectornator:setting key="SnapToPoints" value="0"/>
<vectornator:setting key="OutlineMode" value="0"/>
<vectornator:setting key="CMYKEnabledKey" value="0"/>
<vectornator:setting key="RulersVisible" value="1"/>
<vectornator:setting key="SnapToEdges" value="0"/>
<vectornator:setting key="GuidesVisible" value="1"/>
<vectornator:setting key="DisplayWhiteBackground" value="0"/>
<vectornator:setting key="doHistoryDisabled" value="0"/>
<vectornator:setting key="SnapToGuides" value="1"/>
<vectornator:setting key="TimeLapseWatermarkDisabled" value="0"/>
<vectornator:setting key="Units" value="Millimeters"/>
<vectornator:setting key="DynamicGuides" value="1"/>
<vectornator:setting key="IsolateActiveLayer" value="0"/>
<vectornator:setting key="SnapToGrid" value="1"/>
</metadata>
<defs/>
<g id="Слой 1" vectornator:layerName="Слой 1">
<path d="M69.9564+224.48C69.9564+221.922+88.4967+219.847+111.367+219.847C134.238+219.847+152.778+221.922+152.778+224.48C152.778+227.039+134.238+229.113+111.367+229.113C88.4967+229.113+69.9564+227.039+69.9564+224.48Z" opacity="1" fill="#360b1e"/>
<path d="M95.2288+27.0289C53.4438+27.0295+19.2979+65.6569+25.4163+106.404C33.8462+162.543+94.1664+225.841+94.1663+225.841C94.1663+225.841+158.739+159.384+163.01+100.904C165.48+67.0833+131.634+27.0285+95.2288+27.0289ZM93.9163+66.0289C110.319+66.0289+123.604+79.3454+123.604+95.7476C123.604+112.15+110.319+125.435+93.9163+125.435C77.5141+125.435+64.2288+112.15+64.2288+95.7476C64.2288+79.3453+77.5141+66.0291+93.9163+66.0289Z" opacity="1" fill="#ffda3d"/>
<path d="M72.5101+179.06C72.2296+179.738+72.5509+180.53+73.2288+180.81C73.9068+181.091+74.6983+180.769+74.9788+180.091C74.9788+180.091+127.844+50.7781+127.166+50.4976C126.827+50.3574+72.5101+179.06+72.5101+179.06Z" opacity="1" fill="#360b1e"/>
<path d="M133.635+53.6226C132.947+53.3672+80.3538+193.279+80.3538+193.279C80.0984+193.967+80.4474+194.742+81.1351+194.998C81.8229+195.253+82.5983+194.904+82.8538+194.216C82.8538+194.216+134.323+53.8785+133.635+53.6226Z" opacity="1" fill="#360b1e"/>
<path d="M139.073+59.6539C138.374+59.4299+90.3851+207.216+90.3851+207.216C90.1611+207.915+90.5302+208.648+91.2288+208.873C91.9275+209.097+92.6922+208.728+92.9163+208.029C92.9163+208.029+139.771+59.8778+139.073+59.6539Z" opacity="1" fill="#360b1e"/>
<path d="M89.0131+207.499L86.3861+188.541C86.3861+188.541+92.6459+183.031+93.5353+186.179C94.4248+189.327+92.8477+208.789+92.8477+208.789C92.8477+208.789+90.1065+210.046+89.0131+207.499Z" opacity="1" fill="#360b1e"/>
<path d="M79.3138+193.306L76.6868+174.347C76.6868+174.347+82.9466+168.837+83.8361+171.985C84.7255+175.133+83.1484+194.595+83.1484+194.595C83.1484+194.595+80.4072+195.853+79.3138+193.306Z" opacity="1" fill="#360b1e"/>
<path d="M71.6066+179.254L68.9796+160.295C68.9796+160.295+75.2394+154.785+76.1289+157.933C77.0183+161.081+75.4412+180.543+75.4412+180.543C75.4412+180.543+72.7+181.8+71.6066+179.254Z" opacity="1" fill="#ff0d0d"/>
<g opacity="1">
<path d="M224.633+105.069C241.039+105.069+252.899+94.8033+254.164+80.4127L254.211+79.8971L240.43+79.8971L240.336+80.3658C238.555+88.3814+232.836+93.0689+224.68+93.0689C213.852+93.0689+206.914+84.2564+206.914+70.0064L206.914+69.9596C206.914+55.8033+213.805+47.0846+224.633+47.0846C233.07+47.0846+238.602+51.9596+240.195+59.4127L240.383+60.2096L254.164+60.2096L254.117+59.7877C252.852+45.4439+241.086+35.0846+224.633+35.0846C204.899+35.0846+192.43+48.2096+192.43+70.0064L192.43+70.0533C192.43+91.8502+204.852+105.069+224.633+105.069Z" opacity="1" fill="#110d0e"/>
<path d="M303.336+53.6471L259.742+53.6471L259.742+64.0064L274.695+64.0064L274.695+103.897L288.383+103.897L288.383+64.0064L303.336+64.0064L303.336+53.6471Z" opacity="1" fill="#110d0e"/>
<path d="M310.227+120.303L323.914+120.303L323.914+95.3189L324.195+95.3189C326.914+101.272+332.539+104.928+339.758+104.928C352.32+104.928+360.055+95.0846+360.055+78.7721L360.055+78.7252C360.055+62.3658+352.32+52.6158+339.57+52.6158C332.399+52.6158+326.961+56.3189+324.195+62.4127L323.914+62.4127L323.914+53.6471L310.227+53.6471L310.227+120.303ZM335.024+93.5846C328.414+93.5846+323.82+87.8658+323.82+78.8189L323.82+78.7721C323.82+69.6783+328.414+63.9596+335.024+63.9596C341.82+63.9596+346.133+69.5377+346.133+78.7252L346.133+78.7721C346.133+87.9127+341.867+93.5846+335.024+93.5846Z" opacity="1" fill="#110d0e"/>
<path d="M375.711+120.444C386.914+120.444+393.664+116.647+397.602+104.788L414.805+53.6471L400.367+53.6471L389.774+92.9283L389.352+92.9283L378.758+53.6471L363.758+53.6471L381.477+103.897L380.914+105.538C379.695+108.96+377.445+110.131+373.367+110.131C371.305+110.131+369.711+109.85+368.774+109.663L368.774+119.835C370.367+120.116+373.039+120.444+375.711+120.444Z" opacity="1" fill="#110d0e"/>
<path d="M453.336+103.897L467.024+103.897L467.024+53.6471L453.336+53.6471L453.336+72.9596L434.117+72.9596L434.117+53.6471L420.43+53.6471L420.43+103.897L434.117+103.897L434.117+83.3189L453.336+83.3189L453.336+103.897Z" opacity="1" fill="#110d0e"/>
<path d="M476.82+103.897L500.258+103.897C512.117+103.897+519.711+96.9596+519.711+86.0846L519.711+85.9908C519.711+75.1158+512.117+68.1783+500.258+68.1783L490.508+68.1783L490.508+53.6471L476.82+53.6471L476.82+103.897ZM525.055+103.897L538.742+103.897L538.742+53.6471L525.055+53.6471L525.055+103.897ZM497.774+78.4908C502.695+78.4908+505.789+81.3971+505.789+85.9908L505.789+86.0846C505.789+90.6314+502.695+93.5846+497.774+93.5846L490.508+93.5846L490.508+78.4908L497.774+78.4908Z" opacity="1" fill="#110d0e"/>
<path d="M194.586+218.46L208.742+218.46L208.742+189.96L239.211+189.96L239.211+218.46L253.367+218.46L253.367+150.819L239.211+150.819L239.211+178.288L208.742+178.288L208.742+150.819L194.586+150.819L194.586+218.46Z" opacity="1" fill="#110d0e"/>
<path d="M287.164+219.491C302.352+219.491+312.055+209.741+312.055+193.335L312.055+193.241C312.055+176.975+302.211+167.178+287.164+167.178C272.117+167.178+262.274+177.069+262.274+193.241L262.274+193.335C262.274+209.694+271.93+219.491+287.164+219.491ZM287.211+208.756C280.461+208.756+276.195+203.178+276.195+193.335L276.195+193.241C276.195+183.538+280.555+177.913+287.164+177.913C293.82+177.913+298.133+183.538+298.133+193.241L298.133+193.335C298.133+203.131+293.914+208.756+287.211+208.756Z" opacity="1" fill="#110d0e"/>
<path d="M319.93+218.46L345.57+218.46C356.961+218.46+364.086+212.741+364.086+203.975L364.086+203.881C364.086+197.647+359.445+193.053+352.742+192.21L352.742+191.835C357.899+191.038+361.836+186.35+361.836+181.006L361.836+180.913C361.836+172.991+355.555+168.21+345.102+168.21L319.93+168.21L319.93+218.46ZM333.383+188.413L333.383+176.975L341.399+176.975C345.899+176.975+348.383+178.944+348.383+182.647L348.383+182.741C348.383+186.491+345.711+188.413+340.695+188.413L333.383+188.413ZM333.383+209.647L333.383+196.803L341.07+196.803C346.883+196.803+349.977+198.819+349.977+203.038L349.977+203.131C349.977+207.444+347.024+209.647+341.68+209.647L333.383+209.647Z" opacity="1" fill="#110d0e"/>
<path d="M407.305+178.522L407.305+168.21L372.289+168.21L372.289+218.46L385.977+218.46L385.977+178.522L407.305+178.522Z" opacity="1" fill="#110d0e"/>
<path d="M438.102+219.491C453.289+219.491+462.992+209.741+462.992+193.335L462.992+193.241C462.992+176.975+453.149+167.178+438.102+167.178C423.055+167.178+413.211+177.069+413.211+193.241L413.211+193.335C413.211+209.694+422.867+219.491+438.102+219.491ZM438.149+208.756C431.399+208.756+427.133+203.178+427.133+193.335L427.133+193.241C427.133+183.538+431.492+177.913+438.102+177.913C444.758+177.913+449.07+183.538+449.07+193.241L449.07+193.335C449.07+203.131+444.852+208.756+438.149+208.756Z" opacity="1" fill="#110d0e"/>
<path d="M470.774+234.866L484.461+234.866L484.461+209.881L484.742+209.881C487.461+215.835+493.086+219.491+500.305+219.491C512.867+219.491+520.602+209.647+520.602+193.335L520.602+193.288C520.602+176.928+512.867+167.178+500.117+167.178C492.945+167.178+487.508+170.881+484.742+176.975L484.461+176.975L484.461+168.21L470.774+168.21L470.774+234.866ZM495.57+208.147C488.961+208.147+484.367+202.428+484.367+193.381L484.367+193.335C484.367+184.241+488.961+178.522+495.57+178.522C502.367+178.522+506.68+184.1+506.68+193.288L506.68+193.335C506.68+202.475+502.414+208.147+495.57+208.147Z" opacity="1" fill="#110d0e"/>
<path d="M551.445+219.491C566.633+219.491+576.336+209.741+576.336+193.335L576.336+193.241C576.336+176.975+566.492+167.178+551.445+167.178C536.399+167.178+526.555+177.069+526.555+193.241L526.555+193.335C526.555+209.694+536.211+219.491+551.445+219.491ZM551.492+208.756C544.742+208.756+540.477+203.178+540.477+193.335L540.477+193.241C540.477+183.538+544.836+177.913+551.445+177.913C558.102+177.913+562.414+183.538+562.414+193.241L562.414+193.335C562.414+203.131+558.195+208.756+551.492+208.756Z" opacity="1" fill="#110d0e"/>
<path d="M592.695+231.819L592.695+218.46L626.492+218.46L626.492+231.819L638.961+231.819L638.961+207.96L631.461+207.96L631.461+168.21L591.242+168.21L589.602+193.475C589.133+200.272+587.727+205.897+584.07+207.96L580.227+207.96L580.227+231.819L592.695+231.819ZM617.774+207.96L597.899+207.96L597.899+207.678C600.242+204.256+601.32+199.756+601.649+194.366L602.774+178.71L617.774+178.71L617.774+207.96Z" opacity="1" fill="#110d0e"/>
<path d="M689.633+218.46L689.633+168.21L675.945+168.21L675.945+187.71C674.258+189.819+670.93+191.225+667.227+191.225C661.227+191.225+657.852+188.085+657.852+182.038L657.852+168.21L644.164+168.21L644.164+184.241C644.164+195.585+651.055+202.569+662.586+202.569C667.977+202.569+672.711+200.647+675.664+197.413L675.945+197.413L675.945+218.46L689.633+218.46Z" opacity="1" fill="#110d0e"/>
<path d="M699.477+218.46L712.883+218.46L732.664+186.678L733.18+186.678L733.18+218.46L746.633+218.46L746.633+168.21L733.227+168.21L713.399+199.569L712.93+199.569L712.93+168.21L699.477+168.21L699.477+218.46Z" opacity="1" fill="#110d0e"/>
<path d="M789.336+218.46L803.024+218.46L803.024+168.21L789.336+168.21L789.336+187.522L770.117+187.522L770.117+168.21L756.43+168.21L756.43+218.46L770.117+218.46L770.117+197.881L789.336+197.881L789.336+218.46Z" opacity="1" fill="#110d0e"/>
<path d="M812.82+218.46L836.258+218.46C848.117+218.46+855.711+211.522+855.711+200.647L855.711+200.553C855.711+189.678+848.117+182.741+836.258+182.741L826.508+182.741L826.508+168.21L812.82+168.21L812.82+218.46ZM861.055+218.46L874.742+218.46L874.742+168.21L861.055+168.21L861.055+218.46ZM833.774+193.053C838.695+193.053+841.789+195.96+841.789+200.553L841.789+200.647C841.789+205.194+838.695+208.147+833.774+208.147L826.508+208.147L826.508+193.053L833.774+193.053Z" opacity="1" fill="#110d0e"/>
</g>
<g opacity="1">
<path d="M77.8029+259.792C76.2983+259.344+74.9563+259.039+73.7769+258.877C70.2389+258.267+67.5143+257.982+65.6029+258.023C65.3996+258.023+65.1353+258.063+64.8099+258.145C64.8099+258.267+64.7896+258.46+64.7489+258.724C64.7083+258.989+64.6778+259.222+64.6574+259.426C64.6371+259.629+64.6269+259.812+64.6269+259.975C64.3829+263.879+64.4033+267.173+64.6879+269.857C64.8913+271.443+65.1149+272.744+65.3589+273.761C65.3996+273.883+65.4606+274.045+65.5419+274.249C65.6233+274.452+65.6843+274.594+65.7249+274.676C65.8876+275.733+65.6334+276.679+64.9624+277.512C64.2914+278.346+63.5086+278.681+62.6139+278.519C62.3293+278.437+62.0039+278.153+61.6379+277.665C61.2719+277.177+61.0279+276.668+60.9059+276.14C60.8246+275.814+60.8449+274.594+60.9669+272.48C61.0889+271.463+61.1093+270.162+61.0279+268.576C60.9466+264.753+60.8043+262.089+60.6009+260.585C60.5603+260.097+60.4179+259.446+60.1739+258.633C58.9133+258.389+58.2524+257.677+58.1914+256.498C58.1304+255.318+58.7913+254.485+60.1739+253.997C61.2719+253.631+62.9596+253.631+65.2369+253.997C66.1316+254.119+67.7888+254.373+70.2084+254.759C72.6281+255.146+74.5089+255.42+75.8509+255.583C77.8843+255.745+79.3279+255.827+80.1819+255.827C80.3446+255.827+80.5581+255.806+80.8224+255.766C81.0868+255.725+81.2596+255.705+81.3409+255.705C82.5609+255.786+83.5776+256.244+84.3909+257.077C85.2043+257.911+85.4279+258.755+85.0619+259.609C84.8179+260.137+83.9843+260.483+82.5609+260.646C82.5203+260.93+82.4796+261.337+82.4389+261.866C82.3983+262.394+82.3576+262.781+82.3169+263.025C81.8289+268.393+81.7273+273.029+82.0119+276.933C82.1746+278.803+82.4389+280.43+82.8049+281.813C82.8456+281.935+82.9066+282.108+82.9879+282.331C83.0693+282.555+83.1303+282.728+83.1709+282.85C83.4149+283.704+83.2624+284.537+82.7134+285.351C82.1644+286.164+81.4426+286.611+80.5479+286.693C80.2633+286.733+79.8973+286.53+79.4499+286.083C79.0026+285.635+78.6976+285.168+78.5349+284.68C78.3316+284.029+78.2706+282.585+78.3519+280.349C78.3926+278.885+78.3926+277.116+78.3519+275.042C78.3519+274.472+78.3519+272.744+78.3519+269.857C78.3519+266.969+78.3113+264.875+78.2299+263.574C78.1893+263.004+78.1079+262.262+77.9859+261.347C77.8639+260.432+77.8029+259.914+77.8029+259.792Z" opacity="1" fill="#0571de"/>
<path d="M106.889+258.023C106.848+258.185+106.706+258.511+106.462+258.999C106.218+259.487+106.055+259.853+105.974+260.097C104.835+262.821+102.822+269.714+99.9346+280.776C98.6739+285.778+97.0269+291.552+94.9936+298.1C94.9529+298.303+94.8309+298.659+94.6276+299.167C94.4243+299.676+94.3023+300.011+94.2616+300.174C93.8956+301.231+93.6719+301.821+93.5906+301.943C93.1839+302.431+92.4723+302.522+91.4556+302.217C90.4389+301.912+89.8086+301.373+89.5646+300.601C89.3613+299.828+89.3613+299.279+89.5646+298.954C89.6459+298.832+89.8289+298.669+90.1136+298.466C90.3983+298.262+90.6016+298.079+90.7236+297.917C92.1469+295.761+93.3669+292.976+94.3836+289.56C96.0916+284.192+97.6776+278.254+99.1416+271.748C98.9789+271.829+98.8569+271.87+98.7756+271.87C98.4909+271.951+98.1148+271.87+97.6471+271.626C97.1794+271.382+96.8236+271.097+96.5796+270.772C96.3763+270.487+96.0103+269.572+95.4816+268.027C95.3596+267.498+94.9936+266.522+94.3836+265.099C94.2616+264.895+93.8753+264.062+93.2246+262.598C92.5739+261.134+92.0656+260.076+91.6996+259.426C91.5776+259.141+91.3539+258.785+91.0286+258.358C90.7033+257.931+90.4491+257.525+90.2661+257.138C90.0831+256.752+89.9713+256.355+89.9306+255.949C89.8899+254.851+90.4796+254.109+91.6996+253.722C92.9196+253.336+93.8346+253.59+94.4446+254.485C94.6479+254.81+94.9529+255.867+95.3596+257.657C96.0509+260.341+96.9659+262.638+98.1046+264.55C98.6739+265.485+99.2636+266.319+99.8736+267.051C99.9549+267.173+100.057+267.274+100.179+267.356C100.911+263.696+101.358+261.378+101.521+260.402C101.561+260.239+101.632+259.904+101.734+259.395C101.836+258.887+101.907+258.49+101.948+258.206C102.11+257.189+102.232+256.579+102.314+256.376C102.964+255.156+103.95+254.81+105.272+255.339C106.594+255.867+107.133+256.762+106.889+258.023Z" opacity="1" fill="#0571de"/>
<path d="M111.33+259.182C109.907+259.263+109.053+258.673+108.768+257.413C108.484+256.152+108.992+255.217+110.293+254.607C111.025+254.241+112.713+253.915+115.356+253.631C117.715+253.387+121.782+252.98+127.556+252.411C128.166+252.329+129.854+252.248+132.619+252.167C133.433+252.085+133.88+252.045+133.961+252.045C135.344+252.207+136.401+252.767+137.133+253.722C137.865+254.678+137.967+255.542+137.438+256.315C136.991+256.884+135.974+257.128+134.388+257.047C134.022+257.047+133.616+257.006+133.168+256.925C132.721+256.843+132.233+256.732+131.704+256.589C131.176+256.447+130.749+256.355+130.423+256.315C128.959+256.03+127.475+255.949+125.97+256.071C125.808+256.071+125.665+256.091+125.543+256.132C125.909+256.945+126.092+258.531+126.092+260.89C126.092+261.744+126.092+263.503+126.092+266.166C126.092+268.83+126.113+270.731+126.153+271.87C126.235+273.74+126.316+275.245+126.397+276.384C126.397+276.546+126.428+276.76+126.489+277.024C126.55+277.289+126.58+277.461+126.58+277.543C126.58+278.803+126.174+279.83+125.36+280.623C124.547+281.416+123.713+281.63+122.859+281.264C122.575+281.182+122.31+280.827+122.066+280.196C121.822+279.566+121.68+278.946+121.639+278.336C121.599+277.848+121.782+276.526+122.188+274.371C122.432+273.191+122.575+271.809+122.615+270.223C122.697+266.766+122.534+263.98+122.127+261.866C122.046+261.378+121.832+260.605+121.487+259.548C121.141+258.49+120.948+257.616+120.907+256.925L120.907+256.62C119.525+256.864+118.122+257.148+116.698+257.474C116.373+257.555+115.6+257.85+114.38+258.358C113.16+258.867+112.144+259.141+111.33+259.182Z" opacity="1" fill="#0571de"/>
<path d="M144.686+263.818C145.133+263.777+145.865+263.736+146.882+263.696C147.899+263.655+148.448+263.635+148.529+263.635C152.311+263.431+156.296+262.943+160.485+262.171C161.42+262.008+162.783+261.764+164.572+261.439C161.115+258.511+157.293+257.128+153.104+257.291C151.681+257.331+150.267+257.85+148.864+258.846C147.461+259.843+146.292+261.052+145.357+262.476C145.194+262.679+144.971+263.126+144.686+263.818ZM168.598+265.892L168.476+265.892C167.988+265.932+166.483+265.912+163.962+265.831C162.498+265.79+160.912+265.871+159.204+266.075C155.463+266.563+152.291+267.112+149.688+267.722C149.281+267.803+148.529+268.017+147.431+268.362C146.333+268.708+145.459+268.901+144.808+268.942C145.865+270.446+147.685+272.073+150.267+273.822C152.85+275.57+155.707+276.75+158.838+277.36C163.759+278.254+169.635+277.949+176.467+276.445C177.24+276.241+177.931+276.018+178.541+275.774C178.744+275.692+179.07+275.57+179.517+275.408C179.964+275.245+180.269+275.143+180.432+275.103C181.205+275.021+181.977+275.387+182.75+276.201C183.523+277.014+183.726+277.827+183.36+278.641C182.994+279.454+182.242+279.962+181.103+280.166C180.94+280.247+180.595+280.267+180.066+280.227C179.537+280.186+179.171+280.166+178.968+280.166L175.735+280.593C173.58+280.837+171.556+281.01+169.665+281.111C167.774+281.213+165.284+281.182+162.193+281.02C158.899+280.735+155.635+279.932+152.402+278.61C149.169+277.289+147.085+276.201+146.15+275.347C142.856+272.541+141.168+269.572+141.087+266.441C141.046+264.489+141.829+262.415+143.435+260.219C145.042+258.023+146.902+256.396+149.017+255.339C150.847+254.444+152.931+253.976+155.269+253.936C157.608+253.895+159.57+254.18+161.156+254.79C163.23+255.481+165.65+256.965+168.415+259.243C168.618+259.405+168.913+259.67+169.299+260.036C169.686+260.402+169.94+260.646+170.062+260.768C170.835+261.459+171.302+261.967+171.465+262.293C171.506+262.333+171.546+262.405+171.587+262.506C171.628+262.608+171.648+262.679+171.648+262.72C171.973+263.33+172.034+263.919+171.831+264.489C171.75+264.651+171.567+264.814+171.282+264.977C170.591+265.831+169.696+266.136+168.598+265.892Z" opacity="1" fill="#0571de"/>
<path d="M203.418+267.173C203.011+267.376+201.71+268.006+199.514+269.064C199.107+269.267+198.599+269.491+197.989+269.735C198.192+270.426+198.527+271.605+198.995+273.273C199.463+274.94+199.819+276.201+200.063+277.055C200.429+276.77+200.835+276.628+201.283+276.628C201.527+276.628+201.862+276.699+202.289+276.841C202.716+276.984+203.052+277.055+203.296+277.055C205.207+277.217+207.84+277.085+211.195+276.658C214.55+276.231+216.817+275.286+217.997+273.822C218.2+273.537+217.885+272.988+217.051+272.175C216.217+271.361+215.119+270.538+213.757+269.704C212.395+268.871+211.144+268.271+210.006+267.905C208.623+267.498+206.834+267.193+204.638+266.99C204.272+266.99+203.865+267.051+203.418+267.173ZM202.503+263.94C203.357+263.289+203.997+262.608+204.424+261.896C204.851+261.185+204.922+260.727+204.638+260.524C202.686+258.978+199.412+258.592+194.817+259.365C195.183+260.585+195.772+262.496+196.586+265.099C198.375+264.489+200.347+264.102+202.503+263.94ZM186.033+257.352C186.236+257.189+187.029+256.986+188.412+256.742C188.859+256.701+189.489+256.579+190.303+256.376C190.018+255.684+189.672+254.912+189.266+254.058C189.062+253.529+188.818+253.061+188.534+252.655C188.168+252.045+187.964+251.658+187.924+251.496C187.761+250.438+188.351+249.696+189.693+249.269C191.035+248.842+191.97+249.076+192.499+249.971C192.539+250.093+192.661+250.662+192.865+251.679C193.027+252.899+193.332+254.241+193.78+255.705C194.512+255.583+195.691+255.44+197.318+255.278C201.018+254.952+203.824+255.522+205.736+256.986C206.671+257.718+207.261+258.816+207.505+260.28C207.749+261.744+207.525+263.025+206.834+264.123C211.714+264.692+215.658+266.237+218.668+268.759C219.928+269.816+220.609+271.27+220.711+273.12C220.813+274.971+220.274+276.424+219.095+277.482C217.997+278.458+215.801+279.271+212.507+279.922C210.514+280.328+208.277+280.654+205.797+280.898C205.634+280.938+205.217+280.989+204.546+281.05C203.875+281.111+203.377+281.182+203.052+281.264C202.848+281.304+202.564+281.365+202.198+281.447C201.832+281.528+201.567+281.589+201.405+281.63C201.486+281.874+201.527+282.036+201.527+282.118C201.445+282.687+200.937+283.175+200.002+283.582C199.066+283.988+198.253+284.009+197.562+283.643C196.911+283.236+196.565+282.768+196.525+282.24C196.484+282.077+196.525+281.853+196.647+281.569C196.769+281.284+196.83+281.06+196.83+280.898C196.87+279.027+196.565+276.668+195.915+273.822L195+270.162C193.942+269.999+193.19+269.47+192.743+268.576C192.539+268.169+192.946+267.539+193.963+266.685C193.312+264.407+192.58+262.211+191.767+260.097C191.523+260.178+191.319+260.239+191.157+260.28C190.262+260.605+189.571+260.89+189.083+261.134C188.107+261.622+187.598+261.866+187.558+261.866C186.541+262.069+185.789+261.5+185.301+260.158C184.813+258.816+185.057+257.88+186.033+257.352Z" opacity="1" fill="#0571de"/>
<path d="M235.919+263.696C235.797+264.346+235.431+264.916+234.821+265.404C234.781+265.444+234.679+265.505+234.516+265.587C234.354+265.668+234.252+265.729+234.211+265.77C234.089+265.932+233.947+266.176+233.784+266.502C233.703+266.664+233.439+267.417+232.991+268.759C232.544+269.735+231.792+270.477+230.734+270.985C229.677+271.494+228.864+271.361+228.294+270.589L228.172+270.223C227.318+271.199+226.688+272.134+226.281+273.029C225.997+273.639+226.098+274.32+226.586+275.072C227.074+275.825+227.928+276.485+229.148+277.055C230.978+277.868+233.296+278.031+236.102+277.543C240.128+276.892+244.073+276.008+247.936+274.889C251.8+273.771+254.667+272.805+256.537+271.992C257.839+271.382+259.15+270.528+260.472+269.43C261.793+268.332+262.353+267.315+262.149+266.38C261.783+264.794+260.482+263.299+258.245+261.896C256.009+260.493+253.609+259.71+251.047+259.548C247.875+259.344+244.947+259.69+242.263+260.585C239.579+261.479+237.465+262.516+235.919+263.696ZM233.906+260.951C237.851+258.267+241.999+256.62+246.35+256.01C248.709+255.725+251.139+255.867+253.64+256.437C256.141+257.006+258.225+257.901+259.892+259.121C261.316+260.137+262.485+261.378+263.4+262.842C264.315+264.306+264.884+265.566+265.108+266.624C265.331+267.681+265.321+268.393+265.077+268.759C264.101+270.345+261.661+272.134+257.757+274.127C253.853+276.119+249.197+277.807+243.788+279.19C240.982+279.881+238.695+280.359+236.926+280.623C235.157+280.888+233.164+280.867+230.948+280.562C228.731+280.257+226.769+279.515+225.061+278.336C224.085+277.685+223.475+276.75+223.231+275.53C222.987+274.31+222.997+273.13+223.262+271.992C223.526+270.853+223.943+269.836+224.512+268.942C225.244+267.722+226.464+266.319+228.172+264.733C228.416+264.489+228.813+264.133+229.362+263.665C229.911+263.198+230.267+262.882+230.429+262.72C231.527+261.784+232.198+261.276+232.442+261.195C232.971+260.951+233.459+260.869+233.906+260.951Z" opacity="1" fill="#0571de"/>
<path d="M295.749+282.179C293.838+281.121+292.435+279.962+291.54+278.702C290.401+277.197+289.344+275.611+288.368+273.944C287.392+272.276+286.406+270.467+285.41+268.515C284.413+266.563+283.834+265.424+283.671+265.099C282.573+268.23+281.536+271.666+280.56+275.408C280.357+276.058+279.981+277.095+279.432+278.519C278.883+279.942+278.547+280.796+278.425+281.081C278.344+281.243+278.273+281.477+278.212+281.782C278.151+282.087+278.1+282.28+278.059+282.362C283.915+281.955+287.555+281.833+288.978+281.996C289.222+282.036+290.188+282.016+291.876+281.935C293.563+281.853+294.854+281.935+295.749+282.179ZM286.233+258.572C286.355+258.734+286.599+259.426+286.965+260.646C287.412+262.11+288.266+264.265+289.527+267.112C290.625+269.714+291.662+271.89+292.638+273.639C292.801+273.923+292.984+274.218+293.187+274.523C293.39+274.828+293.573+275.093+293.736+275.316C293.899+275.54+294.122+275.825+294.407+276.17C294.692+276.516+294.905+276.77+295.048+276.933C295.19+277.095+295.454+277.38+295.841+277.787C296.227+278.193+296.471+278.448+296.573+278.549C296.674+278.651+296.979+278.956+297.488+279.464C297.996+279.973+298.291+280.267+298.372+280.349C299.063+281.081+299.633+281.823+300.08+282.575C300.527+283.328+300.721+284.141+300.66+285.015C300.599+285.89+300.121+286.591+299.226+287.12C298.657+287.364+298.118+287.404+297.61+287.242C297.101+287.079+296.552+286.835+295.963+286.51C295.373+286.184+295.017+286.022+294.895+286.022C293.187+285.737+287.758+285.676+278.608+285.839C269.458+286.001+264.232+286.489+262.931+287.303C262.565+287.547+262.179+287.974+261.772+288.584C261.691+288.746+261.579+288.98+261.437+289.285C261.294+289.59+261.182+289.783+261.101+289.865C260.735+290.271+259.912+290.383+258.631+290.2C257.35+290.017+256.506+289.499+256.099+288.645C255.936+288.401+255.906+287.964+256.008+287.333C256.109+286.703+256.323+286.164+256.648+285.717C256.892+285.473+257.563+285.066+258.661+284.497C259.84+283.887+264.232+283.317+271.837+282.789C271.756+282.26+271.817+281.752+272.02+281.264C272.223+280.735+273.199+279.108+274.948+276.384C276.005+274.716+276.636+273.537+276.839+272.846C277.937+269.145+278.669+266.136+279.035+263.818C279.076+263.492+279.116+262.669+279.157+261.347C279.198+260.026+279.381+258.978+279.706+258.206C280.194+257.067+281.007+256.457+282.146+256.376C283.285+256.294+284.159+256.721+284.769+257.657C285.298+257.738+285.786+258.043+286.233+258.572Z" opacity="1" fill="#0571de"/>
<path d="M314.587+279.739C314.017+280.43+313.102+280.633+311.842+280.349C311.272+280.43+310.784+280.389+310.378+280.227C309.564+279.942+309.056+279.515+308.853+278.946C308.771+278.905+308.761+278.498+308.822+277.726C308.883+276.953+308.914+276.485+308.914+276.323C308.832+275.143+308.649+273.984+308.365+272.846C307.511+269.796+306.657+267.274+305.803+265.282C305.64+264.916+305.376+264.448+305.01+263.879C304.644+263.309+304.359+262.781+304.156+262.293C303.952+261.805+303.851+261.317+303.851+260.829C303.81+259.568+304.491+258.755+305.894+258.389C307.297+258.023+308.304+258.348+308.914+259.365C309.198+259.812+309.544+261.154+309.951+263.391C310.723+267.01+311.598+270.182+312.574+272.907C312.574+272.866+312.594+272.846+312.635+272.846C313.204+272.073+314.729+270.091+317.21+266.898C319.69+263.706+321.642+261.154+323.066+259.243C324.977+256.681+326.177+255.034+326.665+254.302C326.746+254.18+326.858+253.976+327+253.692C327.143+253.407+327.254+253.224+327.336+253.143C327.905+252.492+328.596+252.167+329.41+252.167C330.223+252.167+330.935+252.451+331.545+253.021C332.561+253.671+333.11+254.281+333.192+254.851C333.232+255.054+333.212+255.359+333.131+255.766C333.049+256.172+332.927+256.671+332.765+257.26C332.602+257.85+332.48+258.368+332.399+258.816C331.829+263.533+331.85+268.718+332.46+274.371C332.704+276.526+333.029+278.458+333.436+280.166C333.476+280.369+333.548+280.613+333.649+280.898C333.751+281.182+333.802+281.365+333.802+281.447C333.964+282.463+333.67+283.348+332.917+284.1C332.165+284.853+331.26+285.188+330.203+285.107C329.918+285.066+329.583+284.842+329.196+284.436C328.81+284.029+328.556+283.582+328.434+283.094C328.312+282.524+328.291+280.959+328.373+278.397C328.413+277.014+328.373+274.96+328.251+272.236C328.21+271.341+328.068+267.295+327.824+260.097C326.766+261.195+325.709+262.394+324.652+263.696C320.666+268.82+318.064+272.48+316.844+274.676C316.437+275.367+316.041+276.282+315.654+277.421C315.268+278.559+314.912+279.332+314.587+279.739Z" opacity="1" fill="#0571de"/>
<path d="M338.243+259.182C336.82+259.263+335.966+258.673+335.681+257.413C335.397+256.152+335.905+255.217+337.206+254.607C337.938+254.241+339.626+253.915+342.269+253.631C344.628+253.387+348.695+252.98+354.469+252.411C355.079+252.329+356.767+252.248+359.532+252.167C360.346+252.085+360.793+252.045+360.874+252.045C362.257+252.207+363.314+252.767+364.046+253.722C364.778+254.678+364.88+255.542+364.351+256.315C363.904+256.884+362.887+257.128+361.301+257.047C360.935+257.047+360.529+257.006+360.081+256.925C359.634+256.843+359.146+256.732+358.617+256.589C358.089+256.447+357.662+256.355+357.336+256.315C355.872+256.03+354.388+255.949+352.883+256.071C352.721+256.071+352.578+256.091+352.456+256.132C352.822+256.945+353.005+258.531+353.005+260.89C353.005+261.744+353.005+263.503+353.005+266.166C353.005+268.83+353.026+270.731+353.066+271.87C353.148+273.74+353.229+275.245+353.31+276.384C353.31+276.546+353.341+276.76+353.402+277.024C353.463+277.289+353.493+277.461+353.493+277.543C353.493+278.803+353.087+279.83+352.273+280.623C351.46+281.416+350.626+281.63+349.772+281.264C349.488+281.182+349.223+280.827+348.979+280.196C348.735+279.566+348.593+278.946+348.552+278.336C348.512+277.848+348.695+276.526+349.101+274.371C349.345+273.191+349.488+271.809+349.528+270.223C349.61+266.766+349.447+263.98+349.04+261.866C348.959+261.378+348.746+260.605+348.4+259.548C348.054+258.49+347.861+257.616+347.82+256.925L347.82+256.62C346.438+256.864+345.035+257.148+343.611+257.474C343.286+257.555+342.513+257.85+341.293+258.358C340.073+258.867+339.057+259.141+338.243+259.182Z" opacity="1" fill="#0571de"/>
<path d="M371.599+263.818C372.046+263.777+372.778+263.736+373.795+263.696C374.812+263.655+375.361+263.635+375.442+263.635C379.224+263.431+383.209+262.943+387.398+262.171C388.333+262.008+389.696+261.764+391.485+261.439C388.028+258.511+384.206+257.128+380.017+257.291C378.594+257.331+377.181+257.85+375.778+258.846C374.375+259.843+373.205+261.052+372.27+262.476C372.107+262.679+371.884+263.126+371.599+263.818ZM395.511+265.892L395.389+265.892C394.901+265.932+393.396+265.912+390.875+265.831C389.411+265.79+387.825+265.871+386.117+266.075C382.376+266.563+379.204+267.112+376.601+267.722C376.194+267.803+375.442+268.017+374.344+268.362C373.246+268.708+372.372+268.901+371.721+268.942C372.778+270.446+374.598+272.073+377.181+273.822C379.763+275.57+382.62+276.75+385.751+277.36C390.672+278.254+396.548+277.949+403.38+276.445C404.153+276.241+404.844+276.018+405.454+275.774C405.657+275.692+405.983+275.57+406.43+275.408C406.877+275.245+407.182+275.143+407.345+275.103C408.118+275.021+408.89+275.387+409.663+276.201C410.436+277.014+410.639+277.827+410.273+278.641C409.907+279.454+409.155+279.962+408.016+280.166C407.853+280.247+407.508+280.267+406.979+280.227C406.45+280.186+406.084+280.166+405.881+280.166L402.648+280.593C400.493+280.837+398.47+281.01+396.579+281.111C394.688+281.213+392.197+281.182+389.106+281.02C385.812+280.735+382.549+279.932+379.316+278.61C376.083+277.289+373.998+276.201+373.063+275.347C369.769+272.541+368.081+269.572+368+266.441C367.959+264.489+368.742+262.415+370.349+260.219C371.955+258.023+373.815+256.396+375.93+255.339C377.76+254.444+379.844+253.976+382.183+253.936C384.521+253.895+386.483+254.18+388.069+254.79C390.143+255.481+392.563+256.965+395.328+259.243C395.531+259.405+395.826+259.67+396.213+260.036C396.599+260.402+396.853+260.646+396.975+260.768C397.748+261.459+398.215+261.967+398.378+262.293C398.419+262.333+398.459+262.405+398.5+262.506C398.541+262.608+398.561+262.679+398.561+262.72C398.886+263.33+398.947+263.919+398.744+264.489C398.663+264.651+398.48+264.814+398.195+264.977C397.504+265.831+396.609+266.136+395.511+265.892Z" opacity="1" fill="#0571de"/>
<path d="M418.253+253.875C418.578+252.858+419.198+252.207+420.113+251.923C421.028+251.638+421.811+251.78+422.462+252.35C423.6+252.35+424.515+252.899+425.207+253.997C425.735+254.851+426.284+256.782+426.854+259.792C427.992+265.404+429.07+269.796+430.087+272.968C430.534+274.472+431.144+276.201+431.917+278.153C431.998+278.315+432.12+278.539+432.283+278.824C432.445+279.108+432.547+279.312+432.588+279.434C433.076+280.857+433.045+282.199+432.496+283.46C431.947+284.72+431.144+285.31+430.087+285.229C429.761+285.229+429.324+284.903+428.775+284.253C428.226+283.602+427.809+282.911+427.525+282.179C427.321+281.65+427.016+280.003+426.61+277.238C426.447+275.774+426.122+274.045+425.634+272.053C424.292+266.888+423.295+263.452+422.645+261.744C422.604+261.662+422.553+261.551+422.492+261.408C422.431+261.266+422.38+261.154+422.34+261.073C421.201+265.749+420.449+269.714+420.083+272.968C419.92+274.594+419.839+276.302+419.839+278.092C419.839+278.295+419.859+278.549+419.9+278.854C419.94+279.159+419.961+279.373+419.961+279.495C419.879+280.877+419.371+282.016+418.436+282.911C417.5+283.805+416.545+284.049+415.569+283.643C415.243+283.521+414.949+283.084+414.684+282.331C414.42+281.579+414.288+280.837+414.288+280.105C414.288+279.373+414.613+277.807+415.264+275.408C415.63+274.147+415.996+272.48+416.362+270.406C417.175+265.892+417.704+262.476+417.948+260.158C417.988+259.751+417.978+258.684+417.917+256.955C417.856+255.227+417.968+254.2+418.253+253.875Z" opacity="1" fill="#0571de"/>
<path d="M443.8+274.615C444.004+275.631+444.329+276.953+444.776+278.58C444.858+278.783+445.02+279.21+445.264+279.861C445.468+279.82+445.732+279.8+446.057+279.8C446.342+279.84+446.728+279.942+447.216+280.105C447.704+280.267+448.07+280.369+448.314+280.41C452.259+281.02+455.39+281.02+457.708+280.41C459.213+280.003+459.782+278.966+459.416+277.299C458.888+275.428+457.891+274.005+456.427+273.029C454.353+271.646+451.771+271.524+448.68+272.663C448.152+272.825+447.603+273.13+447.033+273.578C446.098+274.188+445.569+274.513+445.447+274.554C444.837+274.716+444.288+274.737+443.8+274.615ZM441.36+252.289C441.482+252.573+441.584+253.244+441.665+254.302C441.706+255.644+442.092+260.137+442.824+267.783C442.865+268.433+442.967+269.308+443.129+270.406C443.17+270.324+443.292+270.243+443.495+270.162C443.943+269.836+444.736+269.552+445.874+269.308C447.176+268.982+448.182+268.749+448.894+268.606C449.606+268.464+450.592+268.383+451.852+268.362C453.113+268.342+454.252+268.515+455.268+268.881C456.854+269.45+458.288+270.416+459.569+271.778C460.85+273.141+461.694+274.635+462.1+276.262C462.548+277.888+462.304+279.403+461.368+280.806C460.433+282.209+459.193+283.175+457.647+283.704C457.119+283.866+456.509+283.999+455.817+284.1C455.126+284.202+454.577+284.273+454.17+284.314C453.764+284.354+453.083+284.395+452.127+284.436C451.171+284.476+450.592+284.497+450.388+284.497C450.144+284.537+449.687+284.568+449.016+284.588C448.345+284.609+447.867+284.619+447.582+284.619C446.159+284.7+445.407+284.741+445.325+284.741C445+284.659+444.715+284.517+444.471+284.314C443.983+284.598+443.495+284.68+443.007+284.558C442.723+284.476+442.418+284.273+442.092+283.948C441.767+283.622+441.523+283.256+441.36+282.85C441.279+282.728+441.249+282.423+441.269+281.935C441.289+281.447+441.299+281.142+441.299+281.02C441.218+280.328+441.066+279.18+440.842+277.573C440.618+275.967+440.466+274.737+440.384+273.883C440.384+273.639+440.334+272.998+440.232+271.961C440.13+270.924+440.069+270.233+440.049+269.887C440.029+269.542+439.978+268.901+439.896+267.966C439.815+267.03+439.744+266.339+439.683+265.892C439.622+265.444+439.541+264.804+439.439+263.97C439.337+263.137+439.236+262.455+439.134+261.927C439.032+261.398+438.92+260.778+438.798+260.066C438.676+259.355+438.534+258.704+438.371+258.114C438.209+257.525+438.046+256.945+437.883+256.376C437.558+255.562+437.355+255.054+437.273+254.851C436.948+254.241+436.765+253.793+436.724+253.509C436.521+252.248+437.101+251.425+438.463+251.038C439.825+250.652+440.791+251.069+441.36+252.289Z" opacity="1" fill="#0571de"/>
<path d="M517.405+259.792C515.9+259.344+514.558+259.039+513.379+258.877C509.841+258.267+507.116+257.982+505.205+258.023C505.001+258.023+504.737+258.063+504.412+258.145C504.412+258.267+504.391+258.46+504.351+258.724C504.31+258.989+504.28+259.222+504.259+259.426C504.239+259.629+504.229+259.812+504.229+259.975C503.985+263.879+504.005+267.173+504.29+269.857C504.493+271.443+504.717+272.744+504.961+273.761C505.001+273.883+505.062+274.045+505.144+274.249C505.225+274.452+505.286+274.594+505.327+274.676C505.489+275.733+505.235+276.679+504.564+277.512C503.893+278.346+503.11+278.681+502.216+278.519C501.931+278.437+501.606+278.153+501.24+277.665C500.874+277.177+500.63+276.668+500.508+276.14C500.426+275.814+500.447+274.594+500.569+272.48C500.691+271.463+500.711+270.162+500.63+268.576C500.548+264.753+500.406+262.089+500.203+260.585C500.162+260.097+500.02+259.446+499.776+258.633C498.515+258.389+497.854+257.677+497.793+256.498C497.732+255.318+498.393+254.485+499.776+253.997C500.874+253.631+502.561+253.631+504.839+253.997C505.733+254.119+507.391+254.373+509.81+254.759C512.23+255.146+514.111+255.42+515.453+255.583C517.486+255.745+518.93+255.827+519.784+255.827C519.946+255.827+520.16+255.806+520.424+255.766C520.689+255.725+520.861+255.705+520.943+255.705C522.163+255.786+523.179+256.244+523.993+257.077C524.806+257.911+525.03+258.755+524.664+259.609C524.42+260.137+523.586+260.483+522.163+260.646C522.122+260.93+522.081+261.337+522.041+261.866C522+262.394+521.959+262.781+521.919+263.025C521.431+268.393+521.329+273.029+521.614+276.933C521.776+278.803+522.041+280.43+522.407+281.813C522.447+281.935+522.508+282.108+522.59+282.331C522.671+282.555+522.732+282.728+522.773+282.85C523.017+283.704+522.864+284.537+522.315+285.351C521.766+286.164+521.044+286.611+520.15+286.693C519.865+286.733+519.499+286.53+519.052+286.083C518.604+285.635+518.299+285.168+518.137+284.68C517.933+284.029+517.872+282.585+517.954+280.349C517.994+278.885+517.994+277.116+517.954+275.042C517.954+274.472+517.954+272.744+517.954+269.857C517.954+266.969+517.913+264.875+517.832+263.574C517.791+263.004+517.71+262.262+517.588+261.347C517.466+260.432+517.405+259.914+517.405+259.792Z" opacity="1" fill="#0571de"/>
<path d="M540.024+263.696C539.902+264.346+539.536+264.916+538.926+265.404C538.886+265.444+538.784+265.505+538.621+265.587C538.459+265.668+538.357+265.729+538.316+265.77C538.194+265.932+538.052+266.176+537.889+266.502C537.808+266.664+537.544+267.417+537.096+268.759C536.649+269.735+535.897+270.477+534.839+270.985C533.782+271.494+532.969+271.361+532.399+270.589L532.277+270.223C531.423+271.199+530.793+272.134+530.386+273.029C530.102+273.639+530.203+274.32+530.691+275.072C531.179+275.825+532.033+276.485+533.253+277.055C535.083+277.868+537.401+278.031+540.207+277.543C544.233+276.892+548.178+276.008+552.041+274.889C555.905+273.771+558.772+272.805+560.642+271.992C561.944+271.382+563.255+270.528+564.577+269.43C565.899+268.332+566.458+267.315+566.254+266.38C565.888+264.794+564.587+263.299+562.35+261.896C560.114+260.493+557.714+259.71+555.152+259.548C551.98+259.344+549.052+259.69+546.368+260.585C543.684+261.479+541.57+262.516+540.024+263.696ZM538.011+260.951C541.956+258.267+546.104+256.62+550.455+256.01C552.814+255.725+555.244+255.867+557.745+256.437C560.246+257.006+562.33+257.901+563.997+259.121C565.421+260.137+566.59+261.378+567.505+262.842C568.42+264.306+568.989+265.566+569.213+266.624C569.437+267.681+569.426+268.393+569.182+268.759C568.206+270.345+565.766+272.134+561.862+274.127C557.958+276.119+553.302+277.807+547.893+279.19C545.087+279.881+542.8+280.359+541.031+280.623C539.262+280.888+537.269+280.867+535.053+280.562C532.837+280.257+530.874+279.515+529.166+278.336C528.19+277.685+527.58+276.75+527.336+275.53C527.092+274.31+527.103+273.13+527.367+271.992C527.631+270.853+528.048+269.836+528.617+268.942C529.349+267.722+530.569+266.319+532.277+264.733C532.521+264.489+532.918+264.133+533.467+263.665C534.016+263.198+534.372+262.882+534.534+262.72C535.632+261.784+536.303+261.276+536.547+261.195C537.076+260.951+537.564+260.869+538.011+260.951Z" opacity="1" fill="#0571de"/>
<path d="M609.054+253.875C609.379+252.858+609.999+252.207+610.914+251.923C611.829+251.638+612.612+251.78+613.263+252.35C614.401+252.35+615.316+252.899+616.008+253.997C616.536+254.851+617.085+256.782+617.655+259.792C618.793+265.404+619.871+269.796+620.888+272.968C621.335+274.472+621.945+276.201+622.718+278.153C622.799+278.315+622.921+278.539+623.084+278.824C623.246+279.108+623.348+279.312+623.389+279.434C623.877+280.857+623.846+282.199+623.297+283.46C622.748+284.72+621.945+285.31+620.888+285.229C620.562+285.229+620.125+284.903+619.576+284.253C619.027+283.602+618.61+282.911+618.326+282.179C618.122+281.65+617.817+280.003+617.411+277.238C617.248+275.774+616.923+274.045+616.435+272.053C615.093+266.888+614.096+263.452+613.446+261.744C613.405+261.662+613.354+261.551+613.293+261.408C613.232+261.266+613.181+261.154+613.141+261.073C612.002+265.749+611.25+269.714+610.884+272.968C610.721+274.594+610.64+276.302+610.64+278.092C610.64+278.295+610.66+278.549+610.701+278.854C610.741+279.159+610.762+279.373+610.762+279.495C610.68+280.877+610.172+282.016+609.237+282.911C608.301+283.805+607.346+284.049+606.37+283.643C606.044+283.521+605.75+283.084+605.485+282.331C605.221+281.579+605.089+280.837+605.089+280.105C605.089+279.373+605.414+277.807+606.065+275.408C606.431+274.147+606.797+272.48+607.163+270.406C607.976+265.892+608.505+262.476+608.749+260.158C608.789+259.751+608.779+258.684+608.718+256.955C608.657+255.227+608.769+254.2+609.054+253.875Z" opacity="1" fill="#0571de"/>
<path d="M630.636+263.818C631.084+263.777+631.816+263.736+632.832+263.696C633.849+263.655+634.398+263.635+634.479+263.635C638.261+263.431+642.247+262.943+646.435+262.171C647.371+262.008+648.733+261.764+650.522+261.439C647.066+258.511+643.243+257.128+639.054+257.291C637.631+257.331+636.218+257.85+634.815+258.846C633.412+259.843+632.243+261.052+631.307+262.476C631.145+262.679+630.921+263.126+630.636+263.818ZM654.548+265.892L654.426+265.892C653.938+265.932+652.434+265.912+649.912+265.831C648.448+265.79+646.862+265.871+645.154+266.075C641.413+266.563+638.241+267.112+635.638+267.722C635.232+267.803+634.479+268.017+633.381+268.362C632.283+268.708+631.409+268.901+630.758+268.942C631.816+270.446+633.636+272.073+636.218+273.822C638.8+275.57+641.657+276.75+644.788+277.36C649.709+278.254+655.585+277.949+662.417+276.445C663.19+276.241+663.881+276.018+664.491+275.774C664.695+275.692+665.02+275.57+665.467+275.408C665.915+275.245+666.22+275.143+666.382+275.103C667.155+275.021+667.928+275.387+668.7+276.201C669.473+277.014+669.676+277.827+669.31+278.641C668.944+279.454+668.192+279.962+667.053+280.166C666.891+280.247+666.545+280.267+666.016+280.227C665.488+280.186+665.122+280.166+664.918+280.166L661.685+280.593C659.53+280.837+657.507+281.01+655.616+281.111C653.725+281.213+651.234+281.182+648.143+281.02C644.849+280.735+641.586+279.932+638.353+278.61C635.12+277.289+633.036+276.201+632.1+275.347C628.806+272.541+627.119+269.572+627.037+266.441C626.997+264.489+627.78+262.415+629.386+260.219C630.992+258.023+632.853+256.396+634.967+255.339C636.797+254.444+638.882+253.976+641.22+253.936C643.558+253.895+645.52+254.18+647.106+254.79C649.18+255.481+651.6+256.965+654.365+259.243C654.569+259.405+654.864+259.67+655.25+260.036C655.636+260.402+655.89+260.646+656.012+260.768C656.785+261.459+657.253+261.967+657.415+262.293C657.456+262.333+657.497+262.405+657.537+262.506C657.578+262.608+657.598+262.679+657.598+262.72C657.924+263.33+657.985+263.919+657.781+264.489C657.7+264.651+657.517+264.814+657.232+264.977C656.541+265.831+655.646+266.136+654.548+265.892Z" opacity="1" fill="#0571de"/>
<path d="M673.447+256.681C673.61+256.03+674.138+255.562+675.033+255.278C675.928+254.993+676.721+255.013+677.412+255.339C678.022+255.054+679.079+254.769+680.584+254.485C683.471+253.997+686.277+253.549+689.002+253.143C689.449+253.061+690.649+252.98+692.601+252.899C693.211+252.817+693.557+252.777+693.638+252.777C694.695+252.939+695.458+253.519+695.926+254.515C696.393+255.512+696.342+256.416+695.773+257.23C695.244+257.84+694.472+258.104+693.455+258.023L690.893+257.291C689.998+257.047+689.043+256.945+688.026+256.986C685.749+257.23+683.837+257.697+682.292+258.389C682.048+258.511+681.55+258.826+680.798+259.334C680.045+259.843+679.405+260.137+678.876+260.219L678.693+260.219L678.693+260.646C678.856+265.485+679.445+269.979+680.462+274.127C680.747+275.469+681.235+276.872+681.926+278.336C681.967+278.458+682.058+278.59+682.201+278.732C682.343+278.875+682.414+278.966+682.414+279.007C682.658+279.373+682.607+279.962+682.262+280.776C681.916+281.589+681.397+282.301+680.706+282.911C680.462+283.114+680.025+283.104+679.395+282.88C678.764+282.657+678.307+282.321+678.022+281.874C677.656+281.345+677.351+280.044+677.107+277.97C676.985+276.912+676.721+275.225+676.314+272.907C675.094+265.505+674.484+261.784+674.484+261.744C674.403+261.296+674.189+260.483+673.844+259.304C673.498+258.124+673.366+257.25+673.447+256.681Z" opacity="1" fill="#0571de"/>
<path d="M703.204+263.818C703.651+263.777+704.383+263.736+705.4+263.696C706.416+263.655+706.965+263.635+707.047+263.635C710.829+263.431+714.814+262.943+719.003+262.171C719.938+262.008+721.3+261.764+723.09+261.439C719.633+258.511+715.81+257.128+711.622+257.291C710.198+257.331+708.785+257.85+707.382+258.846C705.979+259.843+704.81+261.052+703.875+262.476C703.712+262.679+703.488+263.126+703.204+263.818ZM727.116+265.892L726.994+265.892C726.506+265.932+725.001+265.912+722.48+265.831C721.016+265.79+719.43+265.871+717.722+266.075C713.98+266.563+710.808+267.112+708.206+267.722C707.799+267.803+707.047+268.017+705.949+268.362C704.851+268.708+703.976+268.901+703.326+268.942C704.383+270.446+706.203+272.073+708.785+273.822C711.368+275.57+714.224+276.75+717.356+277.36C722.276+278.254+728.153+277.949+734.985+276.445C735.757+276.241+736.449+276.018+737.059+275.774C737.262+275.692+737.587+275.57+738.035+275.408C738.482+275.245+738.787+275.143+738.95+275.103C739.722+275.021+740.495+275.387+741.268+276.201C742.04+277.014+742.244+277.827+741.878+278.641C741.512+279.454+740.759+279.962+739.621+280.166C739.458+280.247+739.112+280.267+738.584+280.227C738.055+280.186+737.689+280.166+737.486+280.166L734.253+280.593C732.097+280.837+730.074+281.01+728.183+281.111C726.292+281.213+723.801+281.182+720.711+281.02C717.417+280.735+714.153+279.932+710.92+278.61C707.687+277.289+705.603+276.201+704.668+275.347C701.374+272.541+699.686+269.572+699.605+266.441C699.564+264.489+700.347+262.415+701.953+260.219C703.56+258.023+705.42+256.396+707.535+255.339C709.365+254.444+711.449+253.976+713.787+253.936C716.126+253.895+718.088+254.18+719.674+254.79C721.748+255.481+724.167+256.965+726.933+259.243C727.136+259.405+727.431+259.67+727.817+260.036C728.204+260.402+728.458+260.646+728.58+260.768C729.352+261.459+729.82+261.967+729.983+262.293C730.023+262.333+730.064+262.405+730.105+262.506C730.145+262.608+730.166+262.679+730.166+262.72C730.491+263.33+730.552+263.919+730.349+264.489C730.267+264.651+730.084+264.814+729.8+264.977C729.108+265.831+728.214+266.136+727.116+265.892Z" opacity="1" fill="#0571de"/>
<path d="M765.9+254.973C766.144+253.671+766.917+253.021+768.218+253.021C769.52+253.021+770.313+253.671+770.597+254.973C770.719+255.501+770.679+257.23+770.475+260.158C770.231+265.2+770.353+269.531+770.841+273.151C771.045+274.615+771.431+276.201+772+277.909C772.041+278.071+772.112+278.254+772.214+278.458C772.316+278.661+772.387+278.824+772.427+278.946C772.793+279.962+772.743+280.959+772.275+281.935C771.807+282.911+771.126+283.439+770.231+283.521C769.906+283.561+769.499+283.328+769.011+282.819C768.523+282.311+768.178+281.772+767.974+281.203C767.69+280.471+767.507+279.027+767.425+276.872C767.263+276.912+766.998+276.933+766.632+276.933C766.104+276.933+765.128+276.648+763.704+276.079C762.403+275.631+761.468+275.367+760.898+275.286C758.58+274.96+756.75+274.838+755.408+274.92C755.205+274.96+754.676+275.103+753.822+275.347C752.968+275.591+752.277+275.672+751.748+275.591L751.565+275.591C751.728+276.445+751.87+277.136+751.992+277.665C752.114+278.193+752.257+278.62+752.419+278.946C752.46+279.068+752.521+279.19+752.602+279.312C752.684+279.434+752.755+279.546+752.816+279.647C752.877+279.749+752.907+279.84+752.907+279.922C752.907+280.369+752.501+280.867+751.687+281.416C750.874+281.965+750.081+282.158+749.308+281.996C749.064+281.955+748.8+281.823+748.515+281.599C748.231+281.376+748.068+281.121+748.027+280.837C747.987+280.674+748.007+280.43+748.088+280.105C748.17+279.779+748.21+279.556+748.21+279.434C748.21+278.905+748.2+278.285+748.18+277.573C748.16+276.862+748.129+276.038+748.088+275.103C748.048+274.167+748.027+273.415+748.027+272.846C747.865+263.492+747.519+257.189+746.99+253.936C746.909+253.285+746.807+252.817+746.685+252.533C746.482+251.963+746.401+251.577+746.441+251.374C746.482+250.723+746.868+250.255+747.6+249.971C748.332+249.686+749.085+249.645+749.857+249.849C750.63+250.052+751.098+250.479+751.26+251.13C751.301+251.374+751.24+251.902+751.077+252.716C750.711+255.4+750.61+259.954+750.772+266.38C750.854+268.494+750.935+270.04+751.016+271.016L751.077+270.955C751.118+270.955+751.159+270.955+751.199+270.955C751.972+270.629+753.253+270.609+755.042+270.894C755.286+270.934+756.344+271.097+758.214+271.382C760.085+271.666+761.529+271.849+762.545+271.931C764.253+272.012+765.29+272.053+765.656+272.053C765.738+272.053+765.89+272.032+766.114+271.992C766.338+271.951+766.49+271.951+766.571+271.992C766.693+271.992+766.876+272.032+767.12+272.114L767.12+271.565C767.039+270.711+766.937+269.003+766.815+266.441C766.693+263.879+766.571+262.008+766.449+260.829C766.409+260.544+766.266+259.69+766.022+258.267C765.778+256.843+765.738+255.745+765.9+254.973Z" opacity="1" fill="#0571de"/>
<path d="M803.16+282.179C801.249+281.121+799.846+279.962+798.951+278.702C797.813+277.197+796.755+275.611+795.779+273.944C794.803+272.276+793.817+270.467+792.821+268.515C791.824+266.563+791.245+265.424+791.082+265.099C789.984+268.23+788.947+271.666+787.971+275.408C787.768+276.058+787.392+277.095+786.843+278.519C786.294+279.942+785.958+280.796+785.836+281.081C785.755+281.243+785.684+281.477+785.623+281.782C785.562+282.087+785.511+282.28+785.47+282.362C791.326+281.955+794.966+281.833+796.389+281.996C796.633+282.036+797.599+282.016+799.287+281.935C800.974+281.853+802.266+281.935+803.16+282.179ZM793.644+258.572C793.766+258.734+794.01+259.426+794.376+260.646C794.824+262.11+795.678+264.265+796.938+267.112C798.036+269.714+799.073+271.89+800.049+273.639C800.212+273.923+800.395+274.218+800.598+274.523C800.802+274.828+800.985+275.093+801.147+275.316C801.31+275.54+801.534+275.825+801.818+276.17C802.103+276.516+802.316+276.77+802.459+276.933C802.601+277.095+802.865+277.38+803.252+277.787C803.638+278.193+803.882+278.448+803.984+278.549C804.085+278.651+804.39+278.956+804.899+279.464C805.407+279.973+805.702+280.267+805.783+280.349C806.475+281.081+807.044+281.823+807.491+282.575C807.939+283.328+808.132+284.141+808.071+285.015C808.01+285.89+807.532+286.591+806.637+287.12C806.068+287.364+805.529+287.404+805.021+287.242C804.512+287.079+803.963+286.835+803.374+286.51C802.784+286.184+802.428+286.022+802.306+286.022C800.598+285.737+795.169+285.676+786.019+285.839C776.869+286.001+771.644+286.489+770.342+287.303C769.976+287.547+769.59+287.974+769.183+288.584C769.102+288.746+768.99+288.98+768.848+289.285C768.705+289.59+768.594+289.783+768.512+289.865C768.146+290.271+767.323+290.383+766.042+290.2C764.761+290.017+763.917+289.499+763.51+288.645C763.348+288.401+763.317+287.964+763.419+287.333C763.52+286.703+763.734+286.164+764.059+285.717C764.303+285.473+764.974+285.066+766.072+284.497C767.252+283.887+771.644+283.317+779.248+282.789C779.167+282.26+779.228+281.752+779.431+281.264C779.635+280.735+780.611+279.108+782.359+276.384C783.417+274.716+784.047+273.537+784.25+272.846C785.348+269.145+786.08+266.136+786.446+263.818C786.487+263.492+786.528+262.669+786.568+261.347C786.609+260.026+786.792+258.978+787.117+258.206C787.605+257.067+788.419+256.457+789.557+256.376C790.696+256.294+791.57+256.721+792.18+257.657C792.709+257.738+793.197+258.043+793.644+258.572Z" opacity="1" fill="#0571de"/>
<path d="M818.948+258.572C819.192+257.433+819.741+256.396+820.595+255.461C821.815+254.241+823.198+253.509+824.743+253.265C826.288+253.021+827.651+253.387+828.83+254.363C830.172+255.583+831.331+257.779+832.307+260.951C833.486+264.895+834.239+269.958+834.564+276.14C834.564+276.262+834.574+276.587+834.594+277.116C834.615+277.644+834.645+278.051+834.686+278.336C834.686+278.539+834.727+278.875+834.808+279.342C834.889+279.81+834.91+280.145+834.869+280.349C834.747+281.121+834.198+281.762+833.222+282.27C832.246+282.779+831.392+282.768+830.66+282.24C830.579+282.199+830.457+282.057+830.294+281.813L828.22+281.813C822.445+281.894+818.338+281.63+815.898+281.02C814.353+280.613+813.072+279.81+812.055+278.61C811.038+277.411+810.794+276.18+811.323+274.92C811.608+274.228+812.157+273.557+812.97+272.907C813.783+272.256+814.485+271.788+815.074+271.504C815.664+271.219+816.467+270.853+817.484+270.406C820.209+269.186+823.421+268.332+827.122+267.844C827.407+267.803+827.834+267.773+828.403+267.752C828.972+267.732+829.338+267.722+829.501+267.722C830.152+267.64+830.579+267.6+830.782+267.6C830.579+265.892+830.091+263.899+829.318+261.622C828.627+259.507+827.854+257.982+827+257.047C826.105+256.071+825.394+256.01+824.865+256.864C824.54+257.433+824.316+257.901+824.194+258.267C823.909+259.324+823.706+260.056+823.584+260.463C823.259+261.276+822.832+261.927+822.303+262.415C821.774+262.903+821.286+263.147+820.839+263.147C820.392+263.147+819.965+262.994+819.558+262.689C819.151+262.384+818.897+261.866+818.795+261.134C818.694+260.402+818.745+259.548+818.948+258.572ZM830.843+272.663C830.64+272.663+830.274+272.592+829.745+272.449C829.216+272.307+828.81+272.215+828.525+272.175C825.963+271.89+823.33+272.114+820.625+272.846C817.921+273.578+815.674+274.838+813.885+276.628L815.349+277.055C816.366+277.299+817.84+277.553+819.771+277.817C821.703+278.082+823.564+278.153+825.353+278.031C826.126+277.949+826.98+277.746+827.915+277.421C828.2+277.339+828.535+277.197+828.921+276.994C829.308+276.79+829.542+276.668+829.623+276.628C829.948+276.628+830.233+276.668+830.477+276.75C830.762+275.326+830.924+273.964+830.965+272.663L830.843+272.663Z" opacity="1" fill="#0571de"/>
<path d="M863.345+258.999C863.873+258.348+864.605+258.084+865.541+258.206C866.842+257.474+867.981+257.718+868.957+258.938C869.445+259.548+870.075+261.093+870.848+263.574C872.027+267.844+873.145+271.321+874.203+274.005C875.016+275.957+875.626+277.339+876.033+278.153C876.073+278.275+876.175+278.437+876.338+278.641C876.5+278.844+876.602+279.007+876.643+279.129C877.09+280.267+877.08+281.376+876.612+282.453C876.144+283.531+875.402+284.09+874.386+284.131C874.06+284.131+873.654+283.887+873.166+283.399C872.678+282.911+872.312+282.402+872.068+281.874C871.824+281.345+871.498+280.003+871.092+277.848C870.766+276.221+870.421+274.838+870.055+273.7C868.875+270.121+867.859+267.437+867.005+265.648C866.761+265.2+866.476+264.733+866.151+264.245C865.988+264.489+865.886+264.651+865.846+264.733C863.975+267.579+862.552+270.182+861.576+272.541C861.21+273.517+860.803+274.676+860.356+276.018C860.315+276.14+860.284+276.313+860.264+276.536C860.244+276.76+860.213+276.912+860.173+276.994C859.888+277.604+859.502+278.071+859.014+278.397C858.892+278.681+858.515+278.885+857.885+279.007C857.255+279.129+856.655+279.068+856.086+278.824C855.801+278.702+855.506+278.519+855.201+278.275C854.896+278.031+854.672+277.838+854.53+277.695C854.388+277.553+854.134+277.248+853.768+276.78C853.402+276.313+853.198+276.058+853.158+276.018C852.832+275.611+852.324+274.971+851.633+274.096C850.941+273.222+850.453+272.622+850.169+272.297C849.599+271.605+848.593+270.304+847.149+268.393C845.705+266.481+844.638+265.119+843.947+264.306C844.272+267.844+844.658+270.67+845.106+272.785C845.39+274.33+845.777+275.814+846.265+277.238C846.305+277.4+846.387+277.604+846.509+277.848C846.631+278.092+846.712+278.275+846.753+278.397C847.037+279.617+846.864+280.735+846.234+281.752C845.604+282.768+844.801+283.216+843.825+283.094C843.54+283.053+843.184+282.748+842.757+282.179C842.33+281.609+842.015+281.02+841.812+280.41C841.69+279.962+841.568+278.559+841.446+276.201C841.364+274.371+841.242+272.866+841.08+271.687C840.51+267.376+840.022+264.346+839.616+262.598C839.575+262.394+839.341+261.642+838.914+260.341C838.487+259.039+838.294+257.982+838.335+257.169C838.375+256.233+838.731+255.542+839.402+255.095C840.073+254.647+840.805+254.546+841.598+254.79C842.391+255.034+842.971+255.603+843.337+256.498C843.337+256.538+843.347+256.589+843.367+256.65C843.387+256.711+843.398+256.762+843.398+256.803C843.845+256.884+844.211+257.026+844.496+257.23C844.78+257.433+845.045+257.728+845.289+258.114C845.533+258.501+845.848+259.039+846.234+259.731C846.62+260.422+846.875+260.89+846.997+261.134C849.274+265.119+851.694+268.454+854.256+271.138C854.947+271.91+855.72+272.581+856.574+273.151C856.614+273.11+856.665+273.039+856.726+272.937C856.787+272.836+856.838+272.764+856.879+272.724C857.611+271.748+858.221+270.731+858.709+269.674C860.132+266.949+861.149+264.794+861.759+263.208C861.84+263.045+862.013+262.425+862.277+261.347C862.541+260.27+862.897+259.487+863.345+258.999Z" opacity="1" fill="#0571de"/>
</g>
</g>
</svg>
