<?xml version="1.0" encoding="UTF-8" standalone="no"?> <!-- Created with Vectornator for iOS (http://vectornator.io/) --><!DOCTYPE svg PUBLIC "-//W3C//DTD SVG 1.1//EN" "http://www.w3.org/Graphics/SVG/1.1/DTD/svg11.dtd">
<svg height="100%" style="fill-rule:nonzero;clip-rule:evenodd;stroke-linecap:round;stroke-linejoin:round;" xmlns:xlink="http://www.w3.org/1999/xlink" xmlns="http://www.w3.org/2000/svg" xml:space="preserve" width="100%" xmlns:vectornator="http://vectornator.io" version="1.1" viewBox="0 0 450 300">
<metadata>
<vectornator:setting key="DimensionsVisible" value="1"/>
<vectornator:setting key="PencilOnly" value="1"/>
<vectornator:setting key="SnapToPoints" value="0"/>
<vectornator:setting key="OutlineMode" value="0"/>
<vectornator:setting key="CMYKEnabledKey" value="0"/>
<vectornator:setting key="RulersVisible" value="1"/>
<vectornator:setting key="SnapToEdges" value="0"/>
<vectornator:setting key="GuidesVisible" value="1"/>
<vectornator:setting key="DisplayWhiteBackground" value="0"/>
<vectornator:setting key="doHistoryDisabled" value="0"/>
<vectornator:setting key="SnapToGuides" value="1"/>
<vectornator:setting key="TimeLapseWatermarkDisabled" value="0"/>
<vectornator:setting key="Units" value="Points"/>
<vectornator:setting key="DynamicGuides" value="1"/>
<vectornator:setting key="IsolateActiveLayer" value="0"/>
<vectornator:setting key="SnapToGrid" value="1"/>
</metadata>
<defs/>
<g id="Слой 1" vectornator:layerName="Слой 1">
<path d="M157.405+58.7677C117.638+58.7677+81.6213+74.8602+55.5666+100.915L68.4742+113.823C91.2332+91.0634+122.684+76.9964+157.405+76.9964C192.125+76.9964+223.577+91.0634+246.336+113.823L259.243+100.915C233.188+74.8602+197.171+58.7677+157.405+58.7677ZM157.405+92.4855C126.949+92.4855+99.3855+104.828+79.4325+124.781L92.34+137.688C108.997+121.031+131.995+110.714+157.405+110.714C182.815+110.714+205.812+121.031+222.47+137.688L235.377+124.781C215.424+104.828+187.86+92.4855+157.405+92.4855ZM157.405+126.203C136.26+126.203+117.097+134.743+103.246+148.594L116.153+161.502C126.709+150.946+141.306+144.432+157.405+144.432C173.504+144.432+188.101+150.946+198.656+161.502L211.564+148.594C197.713+134.743+178.55+126.203+157.405+126.203ZM157.405+159.921C145.571+159.921+134.861+164.71+127.112+172.46L157.405+202.753L187.698+172.46C179.949+164.71+169.239+159.921+157.405+159.921Z" opacity="1" fill="#360b1e"/>
<path d="M161.304+72.6179C128.982+72.6179+99.6121+84.9461+77.3314+104.992C80.5787+108.769+82.5442+111.086+87.4847+116.616C107.037+98.9522+132.871+88.1253+161.304+88.1253C191.76+88.1252+219.304+100.463+239.257+120.416L226.357+133.316C209.7+116.658+186.713+106.351+161.304+106.351C137.596+106.351+116.037+115.365+99.7186+130.098C103.28+134.024+106.443+137.558+110.233+141.694C123.8+129.478+141.603+121.831+161.304+121.831C182.449+121.831+201.604+130.367+215.455+144.218L202.555+157.145C191.999+146.59+177.401+140.057+161.304+140.057C146.377+140.057+132.898+145.863+122.577+155.093C126.307+159.114+129.579+162.522+133.175+166.356C140.715+159.732+150.471+155.564+161.304+155.564C173.138+155.564+183.848+160.354+191.598+168.103L162.83+196.871C162.867+196.906+162.959+196.919+162.996+196.954L167.518+192.432C190.277+215.191+221.736+229.273+256.457+229.273C266.508+229.273+276.201+227.965+285.557+225.722C280.863+223.295+276.735+220.479+276.735+220.479L277.346+211.657C270.579+212.988+263.628+213.765+256.457+213.765C226.001+213.765+198.429+201.428+178.476+181.475L191.376+168.575C208.033+185.232+231.048+195.539+256.457+195.539C264.139+195.539+271.534+194.493+278.65+192.71L279.787+176.176C272.423+178.609+264.642+180.06+256.457+180.06C235.312+180.06+216.129+171.524+202.278+157.673L215.205+144.745C225.762+155.301+240.359+161.834+256.457+161.834C265.366+161.834+273.638+159.561+281.174+155.953L281.618+149.628C280.315+146.581+278.926+143.562+277.401+140.639C271.176+144.165+264.125+146.326+256.457+146.326C244.622+146.327+233.913+141.537+226.163+133.787L252.656+107.294C252.611+107.251+252.589+107.172+252.545+107.128L250.215+109.458C227.456+86.6992+196.025+72.6179+161.304+72.6179Z" opacity="1" fill="#ffd51c"/>
<path d="M260.967+229.139L272.322+228.342C272.322+228.342+275.909+212.048+273.85+212.556C271.79+213.065+260.264+213.72+260.264+213.72L260.967+229.139Z" opacity="1" fill="#ffd51c"/>
<path d="M293.593+95.6998C302.841+92.4105+332.273+89.804+332.273+89.804C332.273+89.804+333.306+87.3768+327.694+87.5535C322.082+87.7301+313.494+87.6431+313.494+87.6431L337.968+44.2904L337.605+87.0542L341.459+87.2724L340.441+44.5813L364.078+88.9451L369.169+89.5269L341.896+43.4177L382.114+93.1633L340.602+39.2579L339.841+24.138L338.51+39.0511L296.105+92.082C296.105+92.082+280.118+97.112+275.919+100.964C271.721+104.817+282.484+111.313+282.484+111.313L283.479+101.003C283.479+101.003+284.344+98.9892+293.593+95.6998Z" opacity="1" fill="#360b1e"/>
<path d="M335.037+91.0949L335.561+106.982L330.973+107.072L330.69+91.3346L335.037+91.0949Z" opacity="1" fill="#360b1e"/>
<path d="M314.14+92.0193L314.323+107.25L310.595+107.482L310.736+92.5598L314.14+92.0193Z" opacity="1" fill="#360b1e"/>
<path d="M297.26+94.9382L297.468+108.646L294.6+109.485L294.531+95.6668L297.26+94.9382Z" opacity="1" fill="#360b1e"/>
<path d="M286.756+98.6596L287.144+112.452L285.011+113.706C285.011+113.706+285.13+100.011+285.383+99.4718C285.636+98.9325+286.756+98.6596+286.756+98.6596Z" opacity="1" fill="#360b1e"/>
<path d="M340.671+156.551C340.671+156.551+341.374+141.954+337.822+141.759C334.271+141.564+334.895+156.356+334.895+156.356L340.671+156.551Z" opacity="1" fill="#360b1e"/>
<path d="M323.893+119.959C327.206+120.096+326.557+132.019+326.557+132.019L321.945+132.224C321.945+132.224+320.579+119.823+323.893+119.959Z" opacity="1" fill="#360b1e"/>
<path d="M278.734+220.062C287.387+228.544+324.083+232.483+324.083+232.483C324.083+232.483+305.439+232.509+295.926+231.624C286.414+230.738+277.693+226.536+267.89+222.651C258.087+218.766+236.901+215.131+236.901+215.131C242.305+212.52+270.082+211.581+278.734+220.062Z" opacity="1" fill="#360b1e"/>
<path d="M278.58+223.045L283.439+111.763L274.306+217.981L278.58+223.045Z" opacity="1" fill="#360b1e"/>
</g>
</svg>
